<svg version="1.2" xmlns="http://www.w3.org/2000/svg" viewBox="0 0 400 400" width="400" height="400">
    <title>Expelliarmus</title>
    <style>
        .s0 { fill: #880016;stroke: #000000;stroke-miterlimit:10 } 
        .s1 { fill: #ffffff;stroke: #ffffff;stroke-miterlimit:10 } 
        .s2 { fill: #daa520 } 
        .s3 { fill: #8a2be2 } 
    </style>
    <path id="pozadi" fill-rule="evenodd" class="s0" d="m400-1.4v402.8h-400v-402.8z"/>
    <path id="kouzlo" fill-rule="evenodd" class="s1" d="m74 103.4c26.5 1.4 40.1 23.6 49.8 44.8 12.1 26.8 22.3 56.7 26.9 85.8 3 19 2.4 43.9 12.3 60.9 16.1 27.9 88.6 39.6 112.2 18.2 15.9-14.5 31.5-38.7 26.4-61.2-6.1-26.6-27.9-41.5-52.6-41.5-4.9 0-13 3.3-17.6 5.4-21.4 9.4-42 50-10.1 59.2 9.7 2.8 22.6-0.7 18.5-13.3-0.4-1.3-2.1-7.2-3.8-7.3-3.9-0.3-13.4 5.8-14.7 2-6.8-19 29.5-33.9 43.7-28 21.9 9.1 26.7 48.3 8.5 66.2-9.1 9-25 14.6-37.1 14.4-22.4-0.4-48.2-5.4-61.2-30.6-8.4-16.5-7.8-60.3-14.3-78.4-9.7-27.2-17.8-62.7-35.2-85.6-8.5-11.1-33.5-26.2-46.7-28-2.4-0.4-7 5.5-8.7 7.3-5.1 5.4 0.7 7.6 3.7 9.6"/>
    <path id="start" fill-rule="evenodd" class="s2" d="m83 119c-11.6 0-21-9.4-21-21 0-11.6 9.4-21 21-21 11.6 0 21 9.4 21 21 0 11.6-9.4 21-21 21z"/>
    <path id="finish" fill-rule="evenodd" class="s3" d="m243 284c-11.6 0-21-9.4-21-21 0-11.6 9.4-21 21-21 11.6 0 21 9.4 21 21 0 11.6-9.4 21-21 21z"/>
</svg>