<svg version="1.2" xmlns="http://www.w3.org/2000/svg" viewBox="0 0 400 400" width="400" height="400">
	<title>Wingardium Leviosa</title>
	<style>
		.s0 { fill: #c3c7bf;stroke: #000000;stroke-miterlimit:10 } 
		.s1 { fill: #ffffff } 
		.s2 { fill: #daa520 } 
		.s3 { fill: #8a2be2 } 
	</style>
	<g id="Layer 1">
		<path id="pozadi" fill-rule="evenodd" class="s0" d="m400-1.4v402.8h-400v-402.8z"/>
		<path id="kouzlo" fill-rule="evenodd" class="s1" d="m103.9 247.9c-15.7-10.9-24.5-29.8-31.2-47.9-12.4-33.5 19.9-34.4 53-30 13.1 1.7 41.4 16.7 53.4 23.8 39.3 23 86.2 48.7 132.3 48.7 8.9 0 18.2-1.5 23.5-6 2.7-2.2 4.7-4.3 6.3-7 10.3-17.1-9.1-32.4-16.1-46.2-2.8-5.5-4.7-11.3-6-17.4-2.1-10.8-1.6-22.9 0.9-33.6 0.9-4.1 2.1-8.1 2.9-12.1 0.4-1.7 3.3-4.6 1.7-4.9-2.4-0.4-17.5 23-18.4 26.3-2.4 10-3.7 21.3-1.6 31.5 2.2 10.9 32.1 43.6 10.7 45.7-26.5 2.8-54.6-17.3-76.8-29.1-32.8-17.3-65.5-35.9-101.6-45-21.6-5.5-61.8-7-76 15.7-23.9 37.9 4.9 80.2 35.4 106.8 9.8 8.5 25 14.2 37.7 16.7 1.4 0.3 13.2 3.5 14.6 1.6 3.1-4.1-4.8-10.7-6.5-13.6-5.3-9 8.7 4.8-38.1-24"/>
		<path id="start" fill-rule="evenodd" class="s2" d="m137 301c-11.6 0-21-9.4-21-21 0-11.6 9.4-21 21-21 11.6 0 21 9.4 21 21 0 11.6-9.4 21-21 21z"/>
		<path id="finish" fill-rule="evenodd" class="s3" d="m317 146c-11.6 0-21-9.4-21-21 0-11.6 9.4-21 21-21 11.6 0 21 9.4 21 21 0 11.6-9.4 21-21 21z"/>
	</g>
</svg>