<svg version="1.2" xmlns="http://www.w3.org/2000/svg" viewBox="0 0 400 400" width="400" height="400">
	<title>bombarda</title>
	<style>
		.s0 { fill: #c7aa85;stroke: #000000;stroke-miterlimit:10 } 
		.s1 { fill: #ffffff } 
		.s2 { fill: #daa520 } 
		.s3 { fill: #8a2be2 } 
	</style>
	<g id="Layer 1">
		<path id="pozadi" fill-rule="evenodd" class="s0" d="m400-1.4v402.8h-400v-402.8z"/>
		<path id="kouzlo" fill-rule="evenodd" class="s1" d="m343.5 143c5.8-5.3-0.6-22.1-2.3-22.1q-11.3 0-22.7 0l-72.4-1.7-83.7 1.3c0 0-10-0.7-40-1.3-30-0.5-22.4 4.8-63.7 75.6-37.5 64.3 44.8 90.5 65.6 109.9 20.8 19.5 15.3-5.4 18.1-0.6 2.8 4.9-19.4-17.5-19.4-17.5-51.2-49.3-51.8-57.4-51.8-57.4 0 0 29.4-61.9 53.7-85.6m144.9 0.6"/>
		<path id="start" fill-rule="evenodd" class="s2" d="m348 152c-11.6 0-21-9.4-21-21 0-11.6 9.4-21 21-21 11.6 0 21 9.4 21 21 0 11.6-9.4 21-21 21z"/>
		<path id="finish" fill-rule="evenodd" class="s3" d="m130 320c-11.6 0-21-9.4-21-21 0-11.6 9.4-21 21-21 11.6 0 21 9.4 21 21 0 11.6-9.4 21-21 21z"/>
	</g>
</svg>