<svg version="1.2" xmlns="http://www.w3.org/2000/svg" viewBox="0 0 400 400" width="400" height="400">
	<title>bombarda</title>
	<style>
		.s0 { fill: #339c21;stroke: #000000;stroke-miterlimit:10 } 
		.s1 { fill: #ffffff } 
		.s2 { fill: #daa520 } 
		.s3 { fill: #8a2be2 } 
	</style>
	<g id="Layer 1">
		<path id="pozadi" fill-rule="evenodd" class="s0" d="m400-1.4v402.8h-400v-402.8z"/>
		<path id="kouzlo" fill-rule="evenodd" class="s1" d="m235.1 122.4c12.7-3 117-33.4 117.7-33.7 28.3-12.2-11.5-6.4-14.3-6-19 2.2-52.6 9-71.4 13-51.5 11-103.3 18.2-154.3 31.3-17.5 4.5-44.3 21.1-42.7 42.3 1.6 21.2 27.7 31 45.7 32.9 40 4 164.9-32.8 202-13.8 0 0 15.3 4.3 6 31-11 31.3-57.7 45.7-93 58.4-34 12.1-69.9 22.8-104.6 32.8-22.1 6.3-43.9 14.9-66.1 20.3-2.9 0.7-19.4 6.8-13.7 12.6 2.1 2.2 22.1-0.3 25.2-1.3 20.5-6.8 46.3-12.2 66.8-19.8 26.5-9.8 53.5-14.8 80-25 25.3-9.7 46.9-18.9 71.8-29.5 32.8-14 65-38.3 60.7-78.3-2.1-19.9-25-22.7-39.1-23.6-34.7-2.1-59.1-0.1-94 2-12.9 0.8-35.9 4.1-48.7 4.4-4.1 0-31.3 2.4-35.3 2.7-8.2 0.5-41 2.4-32.5-18.6 5.1-12.7 67-22.5 77.2-24.5"/>
		<path id="start" fill-rule="evenodd" class="s2" d="m358 102c-11.6 0-21-9.4-21-21 0-11.6 9.4-21 21-21 11.6 0 21 9.4 21 21 0 11.6-9.4 21-21 21z"/>
		<path id="finish" fill-rule="evenodd" class="s3" d="m51 360c-11.6 0-21-9.4-21-21 0-11.6 9.4-21 21-21 11.6 0 21 9.4 21 21 0 11.6-9.4 21-21 21z"/>
	</g>
</svg>