<svg version="1.2" xmlns="http://www.w3.org/2000/svg" viewBox="0 0 400 400" width="400" height="400">
	<title>bombarda</title>
	<style>
		.s0 { fill: #77edb7;stroke: #000000;stroke-miterlimit:10 } 
		.s1 { fill: #ffffff } 
		.s2 { fill: #daa520 } 
		.s3 { fill: #8a2be2 } 
	</style>
	<g id="Layer 1">
		<path id="pozadi" fill-rule="evenodd" class="s0" d="m400-1.4v402.8h-400v-402.8z"/>
		<path id="kouzlo" fill-rule="evenodd" class="s1" d="m48.5 328.1c2-1.9-1.5-15-1.8-17.8-2.5-30-2.4-70.9 4.4-100.3 8-35.1 27.7-88.8 55.1-114 18.2-16.7 54.2-29.8 77.6-31.7 22.8-1.9 59.3-0.2 81.9 5.4 31.5 7.7 50.9 37.1 69.2 62.4 24.9 34.2 18.9 93.4 18.9 135.2 0 14.6 1.1 29 1.1 43.7 0 5.5 1.7 14.4-0.1 19.8-0.1 0.4-1.3 1.8-1.8 1.4-1.7-1.3-0.8-1.4-5.5-1-7.4 0.5-4.6-32.1-6.1-48.7-4-46.4 3.7-90.3-19.8-131-8-13.7-34.5-40.8-49.1-48.7-17.3-9.3-36.2-12.5-55.5-13.5-19-1-52.7 4.5-71.1 9.9-48.6 14.5-68 65.1-79 112.2-3.9 17-6 34.4-7.9 51.6-1.7 15.3-0.9 29.9-2.5 45.1-1 9.2 0.4 18.5 3.6 27.8"/>
		<path id="start" fill-rule="evenodd" class="s2" d="m52.1 345.7c-23.4-1.2-23.6-21.9-23.6-33.5 0-11.6-6.8-7.9 23.2-7.9 30 0 26.8-3.3 24.7 8.3-2 11.4-1 34.4-24.3 33.1z"/>
		<path id="finish" fill-rule="evenodd" class="s3" d="m346.5 350.8c-37.1-2-37.4-34.9-37.4-53.3 0-18.5-11-12.6 36.7-12.6 47.7 0 42.7-5.2 39.4 13.2-3.2 18.2-1.6 54.7-38.7 52.7z"/>
	</g>
</svg>