<svg version="1.2" xmlns="http://www.w3.org/2000/svg" viewBox="0 0 400 400" width="400" height="400">
	<title>Expecto patronum</title>
	<style>
		.s0 { fill: #8ededf;stroke: #000000;stroke-miterlimit:10 } 
		.s1 { fill: #ffffff } 
		.s2 { fill: #daa520 } 
		.s3 { fill: #8a2be2 } 
	</style>
	<g id="Layer 1">
		<path id="pozadi" fill-rule="evenodd" class="s0" d="m400-1.4v402.8h-400v-402.8z"/>
		<path id="kouzlo" fill-rule="evenodd" class="s1" d="m255.6 326c-8.6 9.6 22.8-8.4 32-17.1 9.7-9.2 29.8-43 36.3-55 13-24.1 14-51.5 12.3-78.5-1.5-23.2-12.8-38.4-25.2-55-36.9-49.5-117.5-61.7-173.5-40.1-9.8 3.7-8.4 3-15.4 7-45.9 26.4-58.2 62.3-58.2 112.7 0 21 8.4 58.5 18.7 77.4 7.5 13.9 18.7 24.1 30.9 33.6 18.2 14.1 27.3 14.2 51.8 12.9 19.2-1.1 27.8-7.5 37.7-12.8 24.9-13.1 42-29.4 57-54.1 4.5-7.5 9.9-17.4 11.9-25.8 0.8-3.2 1.8-6.3 2.9-9.5 0.5-1.4 1.1-2.8 1.5-4.2 0.3-0.6 0.3-2.7 0.5-2 1.8 8.7-10 23.6-14 30.8-18 33-94 75.4-132.7 57.8-38.8-17.6-45.9-71.1-47.5-116.5-0.4-12 5.5-33.7 11.1-44 7.3-13.3 30.3-41.3 46-46.7 35.8-12.2 64.1-11.9 100.4-5.8 10.8 1.8 35.6 11.4 41.1 16 11.4 9.6 26.1 23.5 32 36.3 18.9 41 9.9 82.1-3.2 114.3-9.5 23.5-19 45.6-41.2 60.6"/>
		<path id="start" fill-rule="evenodd" class="s2" d="m270 255c-11.6 0-21-9.4-21-21 0-11.6 9.4-21 21-21 11.6 0 21 9.4 21 21 0 11.6-9.4 21-21 21z"/>
		<path id="finish" fill-rule="evenodd" class="s3" d="m256 343c-11.6 0-21-9.4-21-21 0-11.6 9.4-21 21-21 11.6 0 21 9.4 21 21 0 11.6-9.4 21-21 21z"/>
	</g>
</svg>